<svg id="Layer_1" viewBox="0 0 24 24" xmlns="http://www.w3.org/2000/svg" data-name="Layer 1"><path d="m16.499 22.486c-1.292.34-2.78.514-4.499.514s-3.207-.174-4.499-.514c.003-3.353 1.14-4.486 4.499-4.486s4.496 1.134 4.499 4.486zm-4.499-14.486c-1.589 0-2 .411-2 2s.411 2 2 2 2-.411 2-2-.411-2-2-2zm11 4c0 5.028-1.41 8.165-4.522 9.747-.22-3.965-2.243-5.747-6.478-5.747s-6.258 1.782-6.478 5.747c-3.111-1.582-4.522-4.72-4.522-9.747 0-7.71 3.29-11 11-11s11 3.29 11 11zm-7-2c0-2.691-1.309-4-4-4s-4 1.309-4 4 1.309 4 4 4 4-1.309 4-4z"/></svg>