<?xml version="1.0" encoding="UTF-8"?>
<svg xmlns="http://www.w3.org/2000/svg" id="Capa_34" data-name="Capa 34" viewBox="0 0 24 24">
  <path d="m12,0C5.373,0,0,5.373,0,12s5.373,12,12,12,12-5.373,12-12S18.627,0,12,0h0Zm7.439,10.483c-1.52,0-2.93-.486-4.081-1.312v5.961c0,2.977-2.422,5.399-5.399,5.399-1.151,0-2.217-.363-3.094-.978-1.393-.978-2.305-2.594-2.305-4.421,0-2.977,2.422-5.399,5.399-5.399.247,0,.489.02.727.053v2.994c-.23-.072-.474-.114-.727-.114-1.36,0-2.466,1.106-2.466,2.466,0,.947.537,1.769,1.322,2.183.342.18.731.283,1.144.283,1.329,0,2.412-1.057,2.461-2.373l.005-11.756h2.933c0,.254.025.503.069.744.207,1.117.87,2.077,1.789,2.676.64.418,1.403.661,2.222.661v2.933Zm0,0"/>
</svg>
